HIERARCHY
ROOT Hips
{
	OFFSET 0.000000 0.000000 0.000000 
	CHANNELS 6 Xposition Yposition Zposition Yrotation Zrotation Xrotation 
	JOINT Lumbar
	{
		OFFSET 0.000000 0.000000 0.000000 
		CHANNELS 3 Zrotation Xrotation Yrotation
		JOINT Neck
		{
			OFFSET 0.000000 0.445665 0.000000 
			CHANNELS 3 Zrotation Xrotation Yrotation
			End Site
			{
				OFFSET 0.000000 0.227535 0.000000 
			}
		}
		JOINT RightShoulder
		{
			OFFSET 0.019635 0.377685 0.194865 
			CHANNELS 3 Zrotation Xrotation Yrotation
			JOINT RightElbow
			{
				OFFSET 0.000000 -0.243375 0.000000 
				CHANNELS 2 Zrotation Yrotation
				JOINT RightWrist
				{
					OFFSET 0.000000 -0.264825 0.000000 
					CHANNELS 2 Zrotation Xrotation
					End Site
					{
						OFFSET 0.006600 -0.176220 0.000990 
					}
				}
			}
		}
		JOINT LeftShoulder
		{
			OFFSET 0.019635 0.377685 -0.194865 
			CHANNELS 3 Zrotation Xrotation Yrotation
			JOINT LeftElbow
			{
				OFFSET 0.000000 -0.243375 0.000000 
				CHANNELS 2 Zrotation Yrotation
				JOINT LeftWrist
				{
					OFFSET 0.000000 -0.264825 0.000000 
					CHANNELS 2 Zrotation Xrotation
					End Site
					{
						OFFSET 0.006600 -0.176220 -0.000990 
					}
				}
			}
		}
	}
	JOINT RightHip
	{
		OFFSET 0.052140 -0.069960 0.075570 
		CHANNELS 3 Zrotation Xrotation Yrotation
		JOINT RightKnee
		{
			OFFSET 0.000000 -0.402270 0.000000 
			CHANNELS 1 Zrotation
			JOINT RightAnkle
			{
				OFFSET 0.000000 -0.404085 0.000000 
				CHANNELS 3 Zrotation Xrotation Yrotation
				End Site
				{
					OFFSET 0.204105 -0.089430 0.008415 
				}
			}
		}
	}
	JOINT LeftHip
	{
		OFFSET 0.052140 -0.069960 -0.075570 
		CHANNELS 3 Zrotation Xrotation Yrotation
		JOINT LeftKnee
		{
			OFFSET 0.000000 -0.402270 0.000000 
			CHANNELS 1 Zrotation
			JOINT LeftAnkle
			{
				OFFSET 0.000000 -0.404085 0.000000 
				CHANNELS 3 Zrotation Xrotation Yrotation
				End Site
				{
					OFFSET 0.204105 -0.089430 -0.008415 
				}
			}
		}
	}
}
MOTION
Frames: 11
Frame Time: 0.02
0.00038 -7e-05 -4e-05 25.9273 -32.12268 -5.81884 47.88996 1.69428 -8.25732 5.9883 1.89905 -0.12888 -21.95709 -9.696 3.57433 35.21317 91.87317 5.31313 0.91167 -31.74538 13.46493 -12.7293 44.66038 -105.22758 13.54115 -1.64216 47.02559 0.10532 -4.01299 -19.25166 -6.50552 -3.90733 -2.69573 50.78594 1.53351 -1.51045 -25.08084 -6.93682 4.22341 2.91429
-4e-05 -0.00013 0.00019 26.00869 -32.20384 -5.8394 47.82342 1.72526 -8.0581 6.24226 1.94661 -0.12984 -21.63634 -9.86111 3.8266 35.16085 91.88477 5.33058 0.90445 -30.98189 13.86113 -13.03452 45.10135 -105.07506 13.44837 -1.63161 47.13479 0.08394 -4.15062 -19.25839 -6.50291 -3.90333 -2.69111 50.91314 1.6107 -1.18636 -25.09224 -6.92061 4.18585 2.88753
-0.00047 -0.00018 0.00042 26.08979 -32.28483 -5.8599 47.75699 1.75616 -7.85948 6.49579 1.99406 -0.13079 -21.31574 -10.02565 4.07806 35.10855 91.89647 5.348 0.8973 -30.21908 14.25637 -13.33974 45.54086 -104.91839 13.35396 -1.62023 47.2438 0.06264 -4.28794 -19.26511 -6.50031 -3.89933 -2.6865 51.04009 1.68786 -0.86274 -25.10365 -6.90444 4.14832 2.86081
-0.00089 -0.00024 0.00065 26.17093 -32.36575 -5.88039 47.69065 1.78705 -7.66087 6.74902 2.04148 -0.13174 -20.99584 -10.19027 4.32962 35.05638 91.90776 5.36533 0.89007 -29.45766 14.65142 -13.64423 45.98046 -104.76524 13.26101 -1.60951 47.35269 0.04132 -4.42515 -19.27182 -6.49771 -3.89534 -2.6819 51.16693 1.76484 -0.53955 -25.11502 -6.88828 4.11085 2.83412
-0.00132 -0.00029 0.00088 26.25236 -32.4468 -5.90093 47.62422 1.818 -7.46169 7.00252 2.08899 -0.1327 -20.67613 -10.35541 4.5818 35.00424 91.91974 5.38291 0.88285 -28.69618 15.04725 -13.94823 46.42153 -104.61895 13.17082 -1.60014 47.4617 0.0199 -4.56269 -19.27852 -6.4951 -3.89136 -2.67729 51.29394 1.84179 -0.21612 -25.12636 -6.8721 4.07339 2.80741
-0.00174 -0.00034 0.00111 26.33272 -32.52765 -5.92134 47.55775 1.84881 -7.26424 7.25609 2.13628 -0.13366 -20.35368 -10.51864 4.83164 34.95158 91.93129 5.4001 0.87592 -27.93063 15.44117 -14.25589 46.85771 -104.44105 13.0678 -1.58461 47.57069 -0.00113 -4.69958 -19.28529 -6.4925 -3.88729 -2.67266 51.42074 1.91938 0.10786 -25.13793 -6.85594 4.03573 2.78065
-0.00217 -0.0004 0.00134 26.41521 -32.60885 -5.94202 47.49151 1.87987 -7.06351 7.50926 2.18399 -0.13459 -20.03707 -10.68571 5.08643 34.90006 91.94155 5.41748 0.86811 -27.17414 15.83872 -14.55626 47.30329 -104.32432 12.98962 -1.58101 47.67966 -0.02292 -4.83747 -19.29191 -6.4899 -3.88343 -2.66809 51.54789 1.9956 0.43046 -25.14902 -6.83975 3.99849 2.75403
-0.00259 -0.00045 0.00157 26.49564 -32.68964 -5.96241 47.42495 1.91069 -6.86585 7.76279 2.23127 -0.13559 -19.71511 -10.84892 5.33572 34.84745 91.9569 5.43577 0.86167 -26.40924 16.2325 -14.86259 47.74013 -104.15599 12.89052 -1.56731 47.78854 -0.04402 -4.97468 -19.29867 -6.48729 -3.87934 -2.66345 51.67458 2.07306 0.75418 -25.16053 -6.8236 3.9609 2.72729
-0.00301 -0.0005 0.00181 26.57392 -32.77031 -5.98259 47.35836 1.94128 -6.67165 8.01696 2.27821 -0.13653 -19.38617 -11.00873 5.58209 34.79361 91.963 5.45086 0.85469 -25.63364 16.62357 -15.17953 48.16675 -103.90458 12.75756 -1.53752 47.89782 -0.06425 -5.11017 -19.3056 -6.48469 -3.87512 -2.6588 51.80132 2.15218 1.08011 -25.1727 -6.80744 3.92272 2.70031
-0.00346 -0.00057 0.002 26.66571 -32.85284 -6.0044 47.29305 1.9734 -6.45666 8.26807 2.32767 -0.13736 -19.09606 -11.19209 5.85667 34.74716 91.97582 5.47138 0.84417 -24.91831 17.03597 -15.44544 48.65357 -104.07094 12.79445 -1.58902 48.0063 -0.08937 -5.25292 -19.31155 -6.4821 -3.87208 -2.65442 51.92963 2.22218 1.39586 -25.18149 -6.79116 3.88742 2.67442
-0.00383 -0.0006 0.0023 26.72827 -32.93066 -6.02249 47.22436 2.00212 -6.28613 8.52518 2.37146 -0.13869 -18.72501 -11.32319 6.06443 34.68493 92.00415 5.48875 0.84537 -24.07689 17.39964 -15.8125 49.01248 -103.39488 12.48917 -1.47634 48.11549 -0.10427 -5.38202 -19.31956 -6.47945 -3.86627 -2.64932 52.05344 2.31113 1.73139 -25.19712 -6.77527 3.84639 2.64645
